HIERARCHY
ROOT Hips
{
	OFFSET 0.000000 0.794594 0.001814
	CHANNELS 6 Xposition Yposition Zposition Zrotation Xrotation Yrotation
	JOINT Spine
	{
		OFFSET -0.000000 0.051920 0.010783
		CHANNELS 3 Zrotation Xrotation Yrotation
		JOINT Chest
		{
			OFFSET -0.000000 0.111800 0.002642
			CHANNELS 3 Zrotation Xrotation Yrotation
			JOINT UpperChest
			{
				OFFSET 0.000011 0.124994 0.000757
				CHANNELS 3 Zrotation Xrotation Yrotation
				JOINT Neck
				{
					OFFSET 0.000112 0.117647 -0.020286
					CHANNELS 3 Zrotation Xrotation Yrotation
					JOINT Head
					{
						OFFSET 0.000009 0.074359 -0.000161
						CHANNELS 3 Zrotation Xrotation Yrotation
						JOINT LeftEye
						{
							OFFSET 0.019846 0.051735 0.040589
							CHANNELS 3 Zrotation Xrotation Yrotation
							End Site
							{
								OFFSET -0.000199 0.054090 0.042333
							}
						}
						JOINT RightEye
						{
							OFFSET -0.020226 0.051740 0.040395
							CHANNELS 3 Zrotation Xrotation Yrotation
							End Site
							{
								OFFSET -0.000199 0.054090 0.042333
							}
						}
					}
				}
				JOINT LeftShoulder
				{
					OFFSET 0.022480 0.089795 -0.017341
					CHANNELS 3 Zrotation Xrotation Yrotation
					JOINT LeftUpperArm
					{
						OFFSET 0.087730 -0.000010 0.000425
						CHANNELS 3 Zrotation Xrotation Yrotation
						JOINT LeftLowerArm
						{
							OFFSET 0.210364 0.001462 0.000713
							CHANNELS 3 Zrotation Xrotation Yrotation
							JOINT LeftHand
							{
								OFFSET 0.205444 0.001381 0.000710
								CHANNELS 3 Zrotation Xrotation Yrotation
								JOINT LeftIndexProximal
								{
									OFFSET 0.064499 0.001526 0.020305
									CHANNELS 3 Zrotation Xrotation Yrotation
									JOINT LeftIndexIntermediate
									{
										OFFSET 0.033222 0.000012 0.000212
										CHANNELS 3 Zrotation Xrotation Yrotation
										JOINT LeftIndexDistal
										{
											OFFSET 0.020455 0.000007 0.000130
											CHANNELS 3 Zrotation Xrotation Yrotation
											End Site
											{
												OFFSET 0.020455 0.000007 0.000130
											}
										}
									}
								}
								JOINT LeftLittleProximal
								{
									OFFSET 0.062853 -0.001934 -0.027845
									CHANNELS 3 Zrotation Xrotation Yrotation
									JOINT LeftLittleIntermediate
									{
										OFFSET 0.031399 0.000011 0.000200
										CHANNELS 3 Zrotation Xrotation Yrotation
										JOINT LeftLittleDistal
										{
											OFFSET 0.018096 0.000006 0.000115
											CHANNELS 3 Zrotation Xrotation Yrotation
											End Site
											{
												OFFSET 0.018096 0.000006 0.000115
											}
										}
									}
								}
								JOINT LeftMiddleProximal
								{
									OFFSET 0.066609 0.003802 0.003549
									CHANNELS 3 Zrotation Xrotation Yrotation
									JOINT LeftMiddleIntermediate
									{
										OFFSET 0.037005 0.000014 0.000236
										CHANNELS 3 Zrotation Xrotation Yrotation
										JOINT LeftMiddleDistal
										{
											OFFSET 0.022829 0.000008 0.000145
											CHANNELS 3 Zrotation Xrotation Yrotation
											End Site
											{
												OFFSET 0.022829 0.000008 0.000145
											}
										}
									}
								}
								JOINT LeftRingProximal
								{
									OFFSET 0.066900 0.003345 -0.012193
									CHANNELS 3 Zrotation Xrotation Yrotation
									JOINT LeftRingIntermediate
									{
										OFFSET 0.034327 0.000013 0.000219
										CHANNELS 3 Zrotation Xrotation Yrotation
										JOINT LeftRingDistal
										{
											OFFSET 0.019811 0.000007 0.000126
											CHANNELS 3 Zrotation Xrotation Yrotation
											End Site
											{
												OFFSET 0.019811 0.000007 0.000126
											}
										}
									}
								}
								JOINT LeftThumbProximal
								{
									OFFSET 0.001848 -0.006641 0.017858
									CHANNELS 3 Zrotation Xrotation Yrotation
									JOINT LeftThumbIntermediate
									{
										OFFSET 0.030327 -0.003605 0.035110
										CHANNELS 3 Zrotation Xrotation Yrotation
										JOINT LeftThumbDistal
										{
											OFFSET 0.019149 -0.004134 0.020871
											CHANNELS 3 Zrotation Xrotation Yrotation
											End Site
											{
												OFFSET 0.019148 -0.004134 0.020871
											}
										}
									}
								}
							}
						}
					}
				}
				JOINT RightShoulder
				{
					OFFSET -0.022291 0.089804 -0.017557
					CHANNELS 3 Zrotation Xrotation Yrotation
					JOINT RightUpperArm
					{
						OFFSET -0.087729 0.000010 -0.000425
						CHANNELS 3 Zrotation Xrotation Yrotation
						JOINT RightLowerArm
						{
							OFFSET -0.210400 0.000109 -0.000862
							CHANNELS 3 Zrotation Xrotation Yrotation
							JOINT RightHand
							{
								OFFSET -0.205447 0.000043 -0.000839
								CHANNELS 3 Zrotation Xrotation Yrotation
								JOINT RightIndexProximal
								{
									OFFSET -0.064690 0.001513 0.019688
									CHANNELS 3 Zrotation Xrotation Yrotation
									JOINT RightIndexIntermediate
									{
										OFFSET -0.033222 0.000005 -0.000106
										CHANNELS 3 Zrotation Xrotation Yrotation
										JOINT RightIndexDistal
										{
											OFFSET -0.020455 0.000003 -0.000065
											CHANNELS 3 Zrotation Xrotation Yrotation
											End Site
											{
												OFFSET -0.020455 0.000003 -0.000065
											}
										}
									}
								}
								JOINT RightLittleProximal
								{
									OFFSET -0.062584 -0.001948 -0.028445
									CHANNELS 3 Zrotation Xrotation Yrotation
									JOINT RightLittleIntermediate
									{
										OFFSET -0.031399 0.000005 -0.000100
										CHANNELS 3 Zrotation Xrotation Yrotation
										JOINT RightLittleDistal
										{
											OFFSET -0.018096 0.000003 -0.000057
											CHANNELS 3 Zrotation Xrotation Yrotation
											End Site
											{
												OFFSET -0.018096 0.000003 -0.000057
											}
										}
									}
								}
								JOINT RightMiddleProximal
								{
									OFFSET -0.066640 0.003789 0.002912
									CHANNELS 3 Zrotation Xrotation Yrotation
									JOINT RightMiddleIntermediate
									{
										OFFSET -0.037006 0.000005 -0.000118
										CHANNELS 3 Zrotation Xrotation Yrotation
										JOINT RightMiddleDistal
										{
											OFFSET -0.022829 0.000004 -0.000072
											CHANNELS 3 Zrotation Xrotation Yrotation
											End Site
											{
												OFFSET -0.022829 0.000003 -0.000072
											}
										}
									}
								}
								JOINT RightRingProximal
								{
									OFFSET -0.066782 0.003330 -0.012832
									CHANNELS 3 Zrotation Xrotation Yrotation
									JOINT RightRingIntermediate
									{
										OFFSET -0.034327 0.000005 -0.000109
										CHANNELS 3 Zrotation Xrotation Yrotation
										JOINT RightRingDistal
										{
											OFFSET -0.019810 0.000003 -0.000063
											CHANNELS 3 Zrotation Xrotation Yrotation
											End Site
											{
												OFFSET -0.019810 0.000003 -0.000063
											}
										}
									}
								}
								JOINT RightThumbProximal
								{
									OFFSET -0.002018 -0.006641 0.017839
									CHANNELS 3 Zrotation Xrotation Yrotation
									JOINT RightThumbIntermediate
									{
										OFFSET -0.032510 -0.005698 0.032803
										CHANNELS 3 Zrotation Xrotation Yrotation
										JOINT RightThumbDistal
										{
											OFFSET -0.020784 -0.005080 0.019013
											CHANNELS 3 Zrotation Xrotation Yrotation
											End Site
											{
												OFFSET -0.020784 -0.005080 0.019014
											}
										}
									}
								}
							}
						}
					}
				}
			}
		}
	}
	JOINT LeftUpperLeg
	{
		OFFSET 0.077122 -0.039594 -0.005714
		CHANNELS 3 Zrotation Xrotation Yrotation
		JOINT LeftLowerLeg
		{
			OFFSET 0.000014 -0.343085 0.003817
			CHANNELS 3 Zrotation Xrotation Yrotation
			JOINT LeftFoot
			{
				OFFSET 0.000000 -0.401029 -0.031329
				CHANNELS 3 Zrotation Xrotation Yrotation
				JOINT LeftToes
				{
					OFFSET -0.000000 -0.001594 0.127952
					CHANNELS 3 Zrotation Xrotation Yrotation
					End Site
					{
						OFFSET -0.000000 -0.001594 0.127952
					}
				}
			}
		}
	}
	JOINT RightUpperLeg
	{
		OFFSET -0.077122 -0.039594 -0.005714
		CHANNELS 3 Zrotation Xrotation Yrotation
		JOINT RightLowerLeg
		{
			OFFSET -0.000010 -0.343087 0.003715
			CHANNELS 3 Zrotation Xrotation Yrotation
			JOINT RightFoot
			{
				OFFSET 0.000000 -0.401029 -0.031326
				CHANNELS 3 Zrotation Xrotation Yrotation
				JOINT RightToes
				{
					OFFSET -0.000000 -0.001593 0.127952
					CHANNELS 3 Zrotation Xrotation Yrotation
					End Site
					{
						OFFSET 0.000000 -0.001593 0.127952
					}
				}
			}
		}
	}
}
MOTION
Frames: 4
Frame Time: 0.016667
0.000000 0.794594 0.001814 -0.000000 0.000000 -0.000000 0.000000 -0.000000 0.000000 0.000000 0.000000 0.000000 0.000000 -0.000000 -0.000000 0.000000 -0.000000 -0.000000 0.000000 0.000001 -0.000000 -0.000000 -0.000004 -0.000000 -0.000000 -0.000003 -0.000000 0.000000 0.000001 -0.000000 0.000000 0.000002 0.000000 -0.000000 -0.000001 0.000000 0.000000 0.000000 -0.000000 -0.000000 0.000000 -0.000000 -0.000000 0.000000 -0.000000 -0.000000 0.000000 -0.000000 -0.000000 -0.000000 -0.000000 0.000000 0.000000 0.000000 0.000000 -0.000000 0.000000 -0.000000 0.000000 -0.000000 -0.000000 -0.000000 -0.000000 -0.000000 -0.000000 -0.000000 -0.000000 -0.000000 -0.000000 0.000000 0.000000 -0.000000 0.000000 0.000000 -0.000000 -0.000001 -0.000001 -0.000003 0.000002 -0.000000 -0.000002 0.000003 0.000002 -0.000003 0.000000 0.000000 -0.000000 -0.000000 0.000000 -0.000000 0.000000 0.000000 -0.000000 0.000000 0.000000 0.000000 -0.000000 -0.000000 0.000000 -0.000000 0.000000 0.000000 -0.000000 0.000000 0.000000 0.000000 -0.000000 0.000000 0.000000 -0.000000 0.000000 -0.000000 -0.000000 0.000000 0.000000 0.000000 0.000000 0.000000 -0.000000 -0.000000 0.000000 0.000000 -0.000000 0.000000 0.000000 0.000000 0.000000 0.000000 -0.000000 0.000000 0.000000 -0.000000 -0.000001 0.000001 -0.000006 -0.000000 -0.000001 0.000002 -0.000001 -0.000002 0.000001 0.000000 -0.000000 0.000000 -0.000000 -0.000000 0.000000 0.000000 0.000000 0.000000 -0.000000 0.000000 0.000000 -0.000000 0.000000 0.000000 0.000000 -0.000000 0.000000 0.000000 -0.000000 -0.000000 -0.000000 0.000000 -0.000000 
-0.002301 0.791762 0.015186 -1.414388 -0.044969 -7.709754 -1.599501 0.878731 -0.284296 3.590966 -3.844948 -0.042297 -0.103852 -3.584396 0.067444 -4.959669 -2.622591 -1.608981 -10.284582 8.906860 5.498225 0.000066 0.000021 0.000018 0.000067 0.000025 0.000018 -4.923523 -0.059647 -0.687548 -24.004012 57.180414 -49.866685 5.586042 1.668873 -71.251980 -13.078138 -4.928203 -8.624104 -14.449373 -2.316664 4.064155 -26.368509 -0.480809 -4.658057 -26.368809 -0.480804 -4.658012 -16.783300 4.100178 -12.825922 -26.484677 0.375435 -3.715856 -26.485455 0.375479 -3.715843 -17.976175 -0.600516 -0.881502 -26.485179 0.375543 -3.716046 -26.485407 0.375535 -3.716026 -17.665523 1.095735 -5.108421 -26.485252 0.375576 -3.716064 -26.485421 0.375531 -3.716014 10.247772 -6.352315 19.141626 -9.602977 4.581302 19.616923 -7.502283 3.546029 16.061695 3.472177 -0.061159 0.504265 36.717560 61.157008 44.956100 -1.095474 -0.352802 30.503157 4.537605 30.183436 10.259351 31.942285 -2.884317 0.497694 31.579188 -0.318592 5.576616 31.579629 -0.318567 5.576617 31.118376 4.156734 9.335028 31.713388 0.652157 4.407499 31.713777 0.652159 4.407514 31.915145 -1.335103 1.655122 31.713709 0.652294 4.407709 31.713791 0.652216 4.407704 31.713607 0.651887 4.407244 31.713733 0.652272 4.407700 31.713767 0.652178 4.407746 -6.913789 -4.802296 -13.871778 4.856305 1.366993 -23.928683 3.634885 0.788280 -19.580633 0.519989 -6.798986 -6.647640 0.004409 17.485318 0.025515 -4.568700 -7.981926 2.026605 0.000000 0.000001 -0.000000 1.988271 -0.381734 26.147458 -0.003191 12.815211 -0.018046 6.126467 -5.007357 -2.386015 0.000000 0.000000 -0.000001 
-0.002142 0.791719 0.015021 -1.398452 0.011803 -7.747760 -1.606756 0.861309 -0.280530 3.582235 -3.851696 -0.051254 -0.101742 -3.555131 0.049941 -4.960412 -2.622810 -1.606207 -10.234718 8.884547 5.535189 0.004573 -0.000034 0.013957 0.003166 -0.000066 0.009630 -4.923704 -0.059685 -0.687611 -26.880129 55.110402 -48.185192 5.034996 1.490264 -68.673830 -16.557519 11.040558 -10.980459 -14.803124 -2.249837 3.948285 -26.324434 -0.484295 -4.637605 -26.324825 -0.484334 -4.637559 -18.147932 4.356431 -12.567275 -27.320680 0.429012 -3.691117 -27.321918 0.429079 -3.691091 -18.619046 -0.569655 -0.876290 -26.468887 0.372761 -3.697295 -26.469153 0.372774 -3.697237 -18.790883 1.174345 -5.017892 -26.801804 0.394799 -3.695067 -26.817179 0.395762 -3.694926 10.324738 -6.230656 19.912759 -9.707664 4.626657 19.955957 -7.752528 3.655928 16.859543 3.472176 -0.061157 0.504266 38.599209 60.120671 42.715501 -1.067631 -0.328530 29.556670 4.536306 30.193613 10.257004 31.942271 -2.884309 0.497683 31.579188 -0.318581 5.576606 31.579619 -0.318589 5.576606 31.118356 4.156736 9.335023 31.713381 0.652158 4.407502 31.713777 0.652151 4.407517 31.915101 -1.335097 1.655122 31.713685 0.652314 4.407732 31.713791 0.652209 4.407717 31.713566 0.651884 4.407241 31.713729 0.652266 4.407666 31.713791 0.652186 4.407755 -6.913798 -4.802273 -13.871768 4.856298 1.366980 -23.928702 3.634886 0.788279 -19.580628 0.500364 -6.965905 -6.620632 -0.004250 17.595406 0.025282 -4.558401 -7.983087 2.039901 -0.000000 0.000000 0.000000 1.983273 -0.502727 26.164571 -0.001068 12.894981 -0.018241 6.146923 -5.025366 -2.356031 -0.000001 0.000000 0.000001 
-0.001725 0.791580 0.014436 -1.336330 0.178083 -7.856281 -1.614771 0.823956 -0.279450 3.555346 -3.869961 -0.078268 -0.097133 -3.470486 -0.001022 -4.961185 -2.623307 -1.603439 -10.060917 8.811438 5.555189 0.017786 0.000243 0.054618 0.012289 0.000106 0.037775 -4.924189 -0.059771 -0.687786 -28.849906 53.105250 -46.650417 4.922430 1.450750 -68.121950 -16.964544 9.248276 -11.553744 -15.163845 -1.995709 3.641994 -26.197416 -0.494207 -4.578601 -26.197819 -0.494304 -4.578513 -19.474582 4.484384 -12.013469 -28.017470 0.468633 -3.631316 -28.018922 0.468703 -3.631277 -19.207293 -0.502230 -0.847978 -26.421957 0.364825 -3.643163 -26.422165 0.364795 -3.643112 -19.840035 1.196720 -4.801329 -27.065407 0.406760 -3.638837 -27.120661 0.410316 -3.638385 10.249482 -6.051288 20.538874 -9.775060 4.672147 20.274361 -7.959824 3.757090 17.597844 3.472170 -0.061160 0.504262 42.191369 58.238858 38.749299 -1.053089 -0.316308 29.069681 4.533687 30.204623 10.255001 31.942268 -2.884322 0.497676 31.579161 -0.318598 5.576602 31.579608 -0.318577 5.576593 31.118342 4.156722 9.335006 31.713364 0.652175 4.407491 31.713770 0.652150 4.407518 31.915097 -1.335100 1.655108 31.713668 0.652297 4.407727 31.713781 0.652204 4.407713 31.713555 0.651884 4.407226 31.713695 0.652262 4.407689 31.713777 0.652176 4.407749 -6.913809 -4.802280 -13.871793 4.856294 1.367004 -23.928688 3.634890 0.788274 -19.580629 0.435023 -7.035901 -6.539142 0.017607 17.491039 0.025212 -4.533381 -7.978363 2.072754 0.000000 0.000000 -0.000001 1.969087 -0.878220 26.212992 0.000612 13.164965 -0.019002 6.206360 -5.090905 -2.267480 0.000000 -0.000000 0.000001 
